<?xml version="1.0" encoding="utf-8"?>
<!-- Generator: Adobe Illustrator 27.0.0, SVG Export Plug-In . SVG Version: 6.00 Build 0)  -->
<svg version="1.1" id="Layer_1" xmlns="http://www.w3.org/2000/svg" xmlns:xlink="http://www.w3.org/1999/xlink" x="0px" y="0px"
	 viewBox="0 0 206.1 84.7" style="enable-background:new 0 0 206.1 84.7;" xml:space="preserve">
<style type="text/css">
	.st0{fill:#FFFFFF;}
</style>
<g>
	<g>
		<path class="st0" d="M59.2,42.6c0,0.9-0.1,1.9-0.3,2.9c-0.3,1.7-0.8,3.2-1.6,4.3c-0.9,1.4-2.1,2.3-3.5,2.8C53,52.9,52,53,50.8,53
			h-6.5V31.8h6.5c3,0,5.1,1,6.4,2.8C58.5,36.5,59.2,39.2,59.2,42.6z"/>
		<path class="st0" d="M38.7,5.4c-20.4,0-37,16.6-37,37s16.6,37,37,37c20.4,0,37-16.6,37-37S59.1,5.4,38.7,5.4z M61.4,49.9
			c-1.9,4.2-5.2,6.3-9.9,6.3h-11V31.8h-13v24.4h-3.8V31.8h-9.3v-3.3h37.1c3.8,0,6.7,1.4,8.7,4C62.1,35,63,38.1,63,42
			C63,44.9,62.5,47.5,61.4,49.9z"/>
	</g>
	<g>
		<g>
			<path class="st0" d="M108,15v4h-6.8v18.6h-4.8V19h-6.8v-4H108z"/>
			<path class="st0" d="M127.7,35.6c-1.7,1.8-4.2,2.6-7.4,2.6c-3.2,0-5.7-0.9-7.4-2.6c-2.3-2.2-3.4-5.3-3.4-9.3
				c0-4.1,1.1-7.3,3.4-9.3c1.7-1.8,4.2-2.6,7.4-2.6c3.2,0,5.7,0.9,7.4,2.6c2.3,2.1,3.4,5.2,3.4,9.3C131.1,30.3,130,33.4,127.7,35.6z
				 M124.7,32.2c1.1-1.4,1.6-3.3,1.6-5.9c0-2.5-0.5-4.5-1.6-5.9c-1.1-1.4-2.6-2.1-4.5-2.1s-3.4,0.7-4.5,2.1
				c-1.1,1.4-1.7,3.3-1.7,5.9c0,2.5,0.6,4.5,1.7,5.9c1.1,1.4,2.6,2.1,4.5,2.1S123.6,33.6,124.7,32.2z"/>
			<path class="st0" d="M134.6,15h5l9,15.8V15h4.4v22.6h-4.7l-9.2-16v16h-4.4V15z"/>
			<path class="st0" d="M161.7,37.6H157V15h4.7V37.6z"/>
			<path class="st0" d="M168.9,29v0.5c0,1.7,0.2,3,0.5,3.7c0.3,0.7,1,1.1,2.1,1.1c1,0,1.7-0.4,2.1-1.2c0.2-0.5,0.3-1.2,0.3-2.3V15
				h4.7v15.7c0,1.9-0.3,3.4-1,4.6c-1.1,1.9-3.1,2.9-6,2.9c-2.9,0-4.8-0.8-5.8-2.3c-1-1.5-1.5-3.6-1.5-6.3V29H168.9z"/>
			<path class="st0" d="M201,35.6c-1.7,1.8-4.2,2.6-7.4,2.6c-3.2,0-5.7-0.9-7.4-2.6c-2.3-2.2-3.4-5.3-3.4-9.3c0-4.1,1.1-7.3,3.4-9.3
				c1.7-1.8,4.2-2.6,7.4-2.6c3.2,0,5.7,0.9,7.4,2.6c2.3,2.1,3.4,5.2,3.4,9.3C204.4,30.3,203.3,33.4,201,35.6z M198.1,32.2
				c1.1-1.4,1.6-3.3,1.6-5.9c0-2.5-0.5-4.5-1.6-5.9c-1.1-1.4-2.6-2.1-4.5-2.1s-3.4,0.7-4.5,2.1c-1.1,1.4-1.7,3.3-1.7,5.9
				c0,2.5,0.6,4.5,1.7,5.9c1.1,1.4,2.6,2.1,4.5,2.1S197,33.6,198.1,32.2z"/>
			<path class="st0" d="M104.9,47.7c1.6,0.5,2.9,1.5,3.9,2.9c0.8,1.1,1.3,2.3,1.6,3.7c0.3,1.3,0.4,2.6,0.4,3.7c0,3-0.6,5.6-1.8,7.6
				c-1.6,2.8-4.2,4.2-7.6,4.2h-9.8V47.2h9.8C102.8,47.3,103.9,47.4,104.9,47.7z M96.2,51.2v14.8h4.4c2.2,0,3.8-1.1,4.7-3.3
				c0.5-1.2,0.7-2.6,0.7-4.3c0-2.3-0.4-4.1-1.1-5.3c-0.7-1.2-2.2-1.8-4.3-1.8H96.2z"/>
			<path class="st0" d="M120.8,47.2h5.3l8,22.6H129l-1.5-4.6h-8.3l-1.5,4.6h-4.9L120.8,47.2z M120.5,61.3h5.8l-2.9-8.9L120.5,61.3z"
				/>
			<path class="st0" d="M147.9,47.2h4.9l-7.7,22.6h-4.5L133,47.2h5l4.9,17.2L147.9,47.2z"/>
			<path class="st0" d="M160,69.9h-4.7V47.2h4.7V69.9z"/>
			<path class="st0" d="M167.8,62.9c0.1,1,0.4,1.8,0.9,2.3c0.8,0.9,2.1,1.4,4,1.4c1.1,0,2.1-0.1,2.8-0.4c1.3-0.5,2-1.3,2-2.6
				c0-0.7-0.3-1.3-1-1.7c-0.7-0.4-1.7-0.8-3.1-1.1l-2.4-0.5c-2.4-0.5-4.1-1.1-5-1.7c-1.5-1-2.3-2.7-2.3-4.9c0-2,0.7-3.7,2.2-5
				c1.5-1.3,3.7-2,6.6-2c2.4,0,4.5,0.6,6.2,1.9c1.7,1.3,2.6,3.1,2.7,5.5h-4.5c-0.1-1.4-0.7-2.3-1.8-2.9c-0.8-0.4-1.7-0.6-2.8-0.6
				c-1.2,0-2.2,0.2-3,0.7c-0.7,0.5-1.1,1.2-1.1,2.1c0,0.8,0.4,1.4,1.1,1.8c0.5,0.3,1.5,0.6,3,0.9l4,0.9c1.7,0.4,3,1,3.9,1.6
				c1.3,1.1,2,2.6,2,4.6c0,2.1-0.8,3.8-2.4,5.1c-1.6,1.4-3.9,2-6.8,2c-3,0-5.3-0.7-7-2c-1.7-1.3-2.6-3.2-2.6-5.5H167.8z"/>
		</g>
		<g>
			<path class="st0" d="M191.4,50.1v1h-1.7v4.7h-1.2v-4.7h-1.7v-1H191.4z"/>
			<path class="st0" d="M195.9,50.1h1.7v5.7h-1.1V52c0-0.1,0-0.3,0-0.5c0-0.2,0-0.4,0-0.5l-1.1,4.8h-1.2l-1.1-4.8c0,0.1,0,0.3,0,0.5
				c0,0.2,0,0.4,0,0.5v3.9h-1.1v-5.7h1.7l1,4.5L195.9,50.1z"/>
		</g>
	</g>
</g>
</svg>
