<?xml version="1.0" encoding="utf-8"?>
<!-- Generator: Adobe Illustrator 27.0.0, SVG Export Plug-In . SVG Version: 6.00 Build 0)  -->
<svg version="1.1" id="Layer_1" xmlns="http://www.w3.org/2000/svg" xmlns:xlink="http://www.w3.org/1999/xlink" x="0px" y="0px"
	 viewBox="0 0 367.8 165.3" style="enable-background:new 0 0 367.8 165.3;" xml:space="preserve">
<style type="text/css">
	.st0{fill:#C8F753;}
	.st1{fill:#2B4333;}
</style>
<g>
	<g>
		<circle class="st0" cx="81.2" cy="82.7" r="77.6"/>
		<g>
			<path class="st1" d="M79.7,119.1V50.9h24c4.8,0,8.8,0.8,11.9,2.3c3.1,1.5,5.5,3.6,7.1,6.2c1.6,2.6,2.3,5.6,2.3,8.8
				c0,3.5-0.8,6.4-2.3,8.8c-1.5,2.3-3.5,4.1-5.9,5.4c-2.4,1.2-5,2-7.7,2.2l1.4-1c2.9,0.1,5.6,0.8,8.1,2.3c2.5,1.5,4.4,3.5,5.9,6
				c1.5,2.5,2.2,5.4,2.2,8.5c0,3.4-0.8,6.6-2.5,9.4c-1.7,2.8-4.2,5.1-7.5,6.7c-3.3,1.7-7.3,2.5-12.1,2.5H79.7z M87.8,80.8H103
				c4.4,0,7.8-1,10.1-3.1c2.3-2.1,3.5-4.9,3.5-8.5c0-3.4-1.2-6.2-3.5-8.3c-2.3-2.1-5.8-3.1-10.4-3.1H87.8V80.8z M87.8,112.3h15.7
				c4.6,0,8.2-1.1,10.8-3.3c2.6-2.2,3.8-5.2,3.8-9.1c0-3.8-1.3-6.9-3.9-9.2c-2.6-2.3-6.3-3.5-10.9-3.5H87.8V112.3z"/>
		</g>
		<g>
			<path class="st1" d="M63.1,119.1c-4.8,0-8.8-0.8-12.1-2.5c-3.3-1.7-5.8-3.9-7.5-6.7c-1.7-2.8-2.5-6-2.5-9.4
				c0-3.1,0.7-5.9,2.2-8.5c1.5-2.5,3.4-4.5,5.9-6c2.5-1.5,5.2-2.3,8.1-2.3l1.4,1c-2.7-0.3-5.3-1-7.7-2.2c-2.4-1.2-4.4-3-5.9-5.4
				c-1.5-2.3-2.3-5.3-2.3-8.8c0-3.2,0.8-6.2,2.3-8.8c1.6-2.6,3.9-4.7,7.1-6.2c3.2-1.5,7.1-2.3,11.9-2.3h24v68.2H63.1z M79.6,87.3
				H64.2c-4.6,0-8.2,1.2-10.9,3.5c-2.6,2.3-3.9,5.4-3.9,9.2c0,3.9,1.3,6.9,3.8,9.1c2.6,2.2,6.2,3.3,10.8,3.3h15.7V87.3z M79.6,57.8
				H64.7c-4.6,0-8.1,1-10.4,3.1c-2.3,2.1-3.5,4.8-3.5,8.3c0,3.6,1.2,6.4,3.5,8.5c2.3,2.1,5.7,3.1,10.1,3.1h15.2V57.8z"/>
		</g>
	</g>
	<g>
		<path class="st1" d="M176.5,82V37.6h15.6c3.1,0,5.7,0.5,7.8,1.5c2.1,1,3.6,2.3,4.6,4.1c1,1.7,1.5,3.6,1.5,5.7
			c0,2.3-0.5,4.2-1.5,5.7c-1,1.5-2.3,2.7-3.9,3.5c-1.6,0.8-3.3,1.3-5,1.5l0.9-0.6c1.9,0,3.7,0.6,5.3,1.5c1.6,1,2.9,2.3,3.8,3.9
			c1,1.6,1.4,3.5,1.4,5.5c0,2.2-0.5,4.3-1.6,6.1c-1.1,1.8-2.7,3.3-4.9,4.4c-2.1,1.1-4.8,1.6-7.9,1.6H176.5z M181.8,57h9.9
			c2.9,0,5.1-0.7,6.6-2c1.5-1.4,2.3-3.2,2.3-5.5c0-2.2-0.8-4-2.3-5.4c-1.5-1.4-3.8-2-6.8-2h-9.7V57z M181.8,77.5H192
			c3,0,5.3-0.7,7-2.1c1.7-1.4,2.5-3.4,2.5-5.9c0-2.5-0.9-4.5-2.6-6c-1.7-1.5-4.1-2.3-7.1-2.3h-10.1V77.5z"/>
		<path class="st1" d="M217.7,42.3c-1.1,0-1.9-0.3-2.6-1c-0.7-0.7-1-1.6-1-2.6c0-1.1,0.3-1.9,1-2.6c0.7-0.7,1.6-1,2.6-1
			c1,0,1.9,0.3,2.6,1c0.7,0.7,1.1,1.5,1.1,2.6c0,1.1-0.4,1.9-1.1,2.6C219.6,41.9,218.7,42.3,217.7,42.3z M215.1,82V48.6h5.3V82
			H215.1z"/>
		<path class="st1" d="M240.2,82.7c-2.5,0-4.7-0.5-6.3-1.4c-1.7-1-3-2.2-3.8-3.8c-0.8-1.6-1.3-3.3-1.3-5.1c0-2.2,0.6-4.1,1.7-5.6
			c1.1-1.5,2.7-2.7,4.7-3.5c2-0.8,4.4-1.2,7.1-1.2h8.3c0-2.2-0.3-4-0.8-5.4c-0.5-1.4-1.3-2.5-2.5-3.2c-1.1-0.7-2.7-1.1-4.6-1.1
			c-1.9,0-3.5,0.5-4.9,1.4c-1.4,1-2.2,2.4-2.5,4.2H230c0.3-2.2,1-4,2.2-5.5c1.2-1.5,2.8-2.6,4.7-3.4c1.9-0.8,3.9-1.2,6-1.2
			c3,0,5.5,0.5,7.4,1.6c1.9,1.1,3.4,2.6,4.3,4.5c0.9,1.9,1.4,4.2,1.4,6.8V82h-4.8l-0.3-5.7c-0.4,0.9-1,1.7-1.6,2.5
			c-0.7,0.8-1.4,1.5-2.3,2.1c-0.9,0.6-1.9,1.1-3,1.4C242.8,82.6,241.6,82.7,240.2,82.7z M241,78.2c1.4,0,2.7-0.3,3.9-1
			c1.2-0.6,2.2-1.5,3.1-2.6c0.9-1.1,1.5-2.3,2-3.6c0.5-1.4,0.7-2.8,0.7-4.2v-0.6h-7.9c-2,0-3.6,0.3-4.9,0.8
			c-1.2,0.5-2.1,1.2-2.7,2.1c-0.6,0.9-0.8,1.9-0.8,3.1c0,1.2,0.3,2.3,0.8,3.2c0.5,0.9,1.3,1.6,2.3,2.1S239.6,78.2,241,78.2z"/>
		<path class="st1" d="M264.8,82V48.6h4.8l0.3,5.3c1-1.9,2.4-3.4,4.2-4.4c1.8-1.1,4-1.6,6.4-1.6c2.5,0,4.6,0.5,6.4,1.4
			c1.8,0.9,3.2,2.3,4.2,4.2s1.5,4.3,1.5,7.2V82h-5.3V61.3c0-3-0.7-5.2-2.2-6.7c-1.5-1.5-3.4-2.2-5.9-2.2c-1.6,0-3.2,0.4-4.6,1.2
			c-1.4,0.8-2.5,1.9-3.3,3.5c-0.8,1.5-1.2,3.4-1.2,5.6V82H264.8z"/>
		<path class="st1" d="M315.8,82.7c-3,0-5.8-0.7-8.1-2.2c-2.4-1.5-4.2-3.5-5.6-6.1c-1.4-2.6-2-5.7-2-9.1c0-3.5,0.7-6.6,2-9.2
			c1.4-2.6,3.2-4.6,5.6-6.1c2.4-1.5,5.1-2.2,8.1-2.2c3.8,0,7,1,9.5,3c2.6,2,4.2,4.8,4.9,8.2h-5.5c-0.5-2.1-1.5-3.8-3.2-4.9
			c-1.7-1.2-3.6-1.7-5.9-1.7c-1.9,0-3.7,0.5-5.2,1.5c-1.5,1-2.8,2.4-3.6,4.3c-0.9,1.9-1.3,4.3-1.3,7.1c0,2.1,0.3,4,0.8,5.6
			c0.5,1.6,1.2,3,2.1,4.1c0.9,1.1,2,1.9,3.2,2.4c1.2,0.6,2.6,0.8,4.1,0.8c1.5,0,2.9-0.3,4.2-0.8c1.2-0.5,2.3-1.3,3.2-2.3
			c0.9-1,1.4-2.2,1.7-3.6h5.5c-0.7,3.3-2.3,6-4.9,8.1C322.8,81.7,319.6,82.7,315.8,82.7z"/>
		<path class="st1" d="M348.4,82.7c-2.5,0-4.7-0.5-6.3-1.4c-1.7-1-3-2.2-3.8-3.8c-0.8-1.6-1.3-3.3-1.3-5.1c0-2.2,0.6-4.1,1.7-5.6
			c1.1-1.5,2.7-2.7,4.7-3.5c2-0.8,4.4-1.2,7.1-1.2h8.3c0-2.2-0.3-4-0.8-5.4c-0.5-1.4-1.3-2.5-2.5-3.2c-1.1-0.7-2.7-1.1-4.6-1.1
			c-1.9,0-3.5,0.5-4.9,1.4c-1.4,1-2.2,2.4-2.5,4.2h-5.5c0.3-2.2,1-4,2.2-5.5c1.2-1.5,2.8-2.6,4.7-3.4c1.9-0.8,3.9-1.2,6-1.2
			c3,0,5.5,0.5,7.4,1.6c1.9,1.1,3.4,2.6,4.3,4.5c0.9,1.9,1.4,4.2,1.4,6.8V82h-4.8l-0.3-5.7c-0.4,0.9-1,1.7-1.6,2.5
			c-0.7,0.8-1.4,1.5-2.3,2.1c-0.9,0.6-1.9,1.1-3,1.4C351,82.6,349.8,82.7,348.4,82.7z M349.2,78.2c1.4,0,2.7-0.3,3.9-1
			c1.2-0.6,2.2-1.5,3.1-2.6c0.9-1.1,1.5-2.3,2-3.6c0.5-1.4,0.7-2.8,0.7-4.2v-0.6H351c-2,0-3.6,0.3-4.9,0.8c-1.2,0.5-2.1,1.2-2.7,2.1
			c-0.6,0.9-0.8,1.9-0.8,3.1c0,1.2,0.3,2.3,0.8,3.2c0.5,0.9,1.3,1.6,2.3,2.1S347.8,78.2,349.2,78.2z"/>
		<path class="st1" d="M176.5,129.5V85.1h15.6c3.1,0,5.7,0.5,7.8,1.5c2.1,1,3.6,2.3,4.6,4.1c1,1.7,1.5,3.6,1.5,5.7
			c0,2.3-0.5,4.2-1.5,5.7c-1,1.5-2.3,2.7-3.9,3.5c-1.6,0.8-3.3,1.3-5,1.5l0.9-0.6c1.9,0,3.7,0.6,5.3,1.5c1.6,1,2.9,2.3,3.8,3.9
			c1,1.6,1.4,3.5,1.4,5.5c0,2.2-0.5,4.3-1.6,6.1c-1.1,1.8-2.7,3.3-4.9,4.4c-2.1,1.1-4.8,1.6-7.9,1.6H176.5z M181.8,104.5h9.9
			c2.9,0,5.1-0.7,6.6-2c1.5-1.4,2.3-3.2,2.3-5.5c0-2.2-0.8-4-2.3-5.4c-1.5-1.4-3.8-2-6.8-2h-9.7V104.5z M181.8,125.1H192
			c3,0,5.3-0.7,7-2.1c1.7-1.4,2.5-3.4,2.5-5.9c0-2.5-0.9-4.5-2.6-6c-1.7-1.5-4.1-2.3-7.1-2.3h-10.1V125.1z"/>
		<path class="st1" d="M226.5,130.3c-2.5,0-4.6-0.5-6.4-1.4c-1.8-0.9-3.2-2.4-4.2-4.3c-1-1.9-1.5-4.3-1.5-7.2V96.2h5.3v20.7
			c0,3,0.7,5.2,2.2,6.7c1.5,1.5,3.4,2.2,5.9,2.2c1.7,0,3.2-0.4,4.6-1.2c1.4-0.8,2.4-1.9,3.3-3.5c0.8-1.5,1.2-3.4,1.2-5.6V96.2h5.3
			v33.4h-4.8l-0.3-5.3c-0.9,1.9-2.3,3.4-4.1,4.5C231.1,129.8,229,130.3,226.5,130.3z"/>
		<path class="st1" d="M264.1,129.5c-1.9,0-3.6-0.3-4.9-0.9c-1.4-0.6-2.5-1.6-3.2-3c-0.7-1.4-1.1-3.3-1.1-5.7v-19.2H249v-4.5h5.8
			l0.7-8.3h4.6v8.3h9.5v4.5h-9.5v19.2c0,2,0.4,3.3,1.2,4c0.8,0.7,2.2,1,4.2,1h3.9v4.6H264.1z"/>
		<path class="st1" d="M276.9,129.5V83.9h5.3v45.7H276.9z"/>
		<path class="st1" d="M305.1,130.3c-3,0-5.6-0.7-7.9-2.2c-2.3-1.4-4.1-3.5-5.4-6.1c-1.3-2.6-1.9-5.7-1.9-9.2c0-3.5,0.6-6.6,1.9-9.2
			c1.3-2.6,3.1-4.7,5.4-6.1c2.3-1.4,5-2.2,8-2.2c3.2,0,5.9,0.7,8.1,2.2c2.2,1.4,3.8,3.4,4.9,5.8c1.1,2.4,1.6,5.1,1.6,7.9
			c0,0.4,0,0.8,0,1.3c0,0.4,0,0.9-0.1,1.5h-25.8v-4.1h20.7c-0.1-3.3-1-5.7-2.8-7.5c-1.8-1.7-4-2.6-6.7-2.6c-1.8,0-3.4,0.4-4.9,1.3
			c-1.5,0.9-2.7,2.1-3.6,3.8c-0.9,1.7-1.4,3.8-1.4,6.3v1.8c0,2.8,0.5,5.1,1.4,7c0.9,1.9,2.1,3.3,3.6,4.2c1.5,0.9,3.1,1.4,4.9,1.4
			c2.4,0,4.2-0.5,5.6-1.4c1.4-0.9,2.3-2.2,3-3.9h5.3c-0.5,1.9-1.4,3.5-2.6,5c-1.2,1.5-2.8,2.6-4.7,3.5
			C309.7,129.9,307.5,130.3,305.1,130.3z"/>
		<path class="st1" d="M327.1,129.5V96.2h4.8l0.4,6.1c0.8-1.5,1.8-2.8,3-3.8c1.2-1,2.7-1.8,4.5-2.3c1.8-0.5,3.7-0.8,5.9-0.8v5.6
			h-3.3c-1.3,0-2.5,0.2-3.7,0.5c-1.2,0.3-2.3,0.9-3.2,1.6c-1,0.8-1.7,1.8-2.3,3.1c-0.5,1.3-0.8,3-0.8,4.9v18.3H327.1z"/>
		<path class="st1" d="M351.4,129.9c-1,0-1.9-0.3-2.6-1c-0.7-0.7-1-1.6-1-2.6c0-1,0.3-1.9,1-2.6c0.7-0.7,1.6-1,2.6-1
			c1.1,0,2,0.3,2.6,1c0.7,0.7,1,1.6,1,2.6c0,1-0.3,1.9-1,2.6C353.4,129.5,352.5,129.9,351.4,129.9z"/>
	</g>
</g>
</svg>
